{"asset":{"version":"2.0","generator":"Blockbench 4.12.4 glTF exporter"},"scenes":[{"nodes":[16],"name":"blockbench_export"}],"scene":0,"nodes":[{"name":"cube","mesh":0},{"translation":[0.3125,0.8125,0.3125],"name":"torus","mesh":1},{"translation":[0,0.8125,0.3125],"name":"torus","mesh":2},{"translation":[-0.3125,0.8125,0.3125],"name":"torus","mesh":3},{"translation":[-0.3125,0.8125,0],"name":"torus","mesh":4},{"translation":[0,0.8125,0],"name":"torus","mesh":5},{"translation":[0.3125,0.8125,0],"name":"torus","mesh":6},{"translation":[-0.3125,0.8125,-0.3125],"name":"torus","mesh":7},{"translation":[0,0.8125,-0.3125],"name":"torus","mesh":8},{"translation":[0.3125,0.8125,-0.3125],"name":"torus","mesh":9},{"rotation":[0.7071067811865475,0,0,0.7071067811865476],"translation":[0.375,0.625,-0.75],"name":"cylinder","mesh":10},{"rotation":[0.7071067811865475,0,0,0.7071067811865476],"translation":[0.1875,0.625,-0.75],"name":"cylinder","mesh":11},{"rotation":[0.7071067811865475,0,0,0.7071067811865476],"translation":[0,0.625,-0.75],"name":"cylinder","mesh":12},{"rotation":[0.7071067811865475,0,0,0.7071067811865476],"translation":[-0.1875,0.625,-0.75],"name":"cylinder","mesh":13},{"rotation":[0.7071067811865475,0,0,0.7071067811865476],"translation":[-0.375,0.625,-0.75],"name":"cylinder","mesh":14},{"translation":[0,0.0625,-0.5625],"name":"cube","mesh":15},{"children":[0,1,2,3,4,5,6,7,8,9,10,11,12,13,14,15]}],"bufferViews":[{"buffer":0,"byteOffset":0,"byteLength":288,"target":34962,"byteStride":12},{"buffer":0,"byteOffset":288,"byteLength":288,"target":34962,"byteStride":12},{"buffer":0,"byteOffset":576,"byteLength":192,"target":34962,"byteStride":8},{"buffer":0,"byteOffset":768,"byteLength":72,"target":34963},{"buffer":0,"byteOffset":840,"byteLength":4608,"target":34962,"byteStride":12},{"buffer":0,"byteOffset":5448,"byteLength":4608,"target":34962,"byteStride":12},{"buffer":0,"byteOffset":10056,"byteLength":3072,"target":34962,"byteStride":8},{"buffer":0,"byteOffset":13128,"byteLength":1152,"target":34963},{"buffer":0,"byteOffset":14280,"byteLength":4608,"target":34962,"byteStride":12},{"buffer":0,"byteOffset":18888,"byteLength":4608,"target":34962,"byteStride":12},{"buffer":0,"byteOffset":23496,"byteLength":3072,"target":34962,"byteStride":8},{"buffer":0,"byteOffset":26568,"byteLength":1152,"target":34963},{"buffer":0,"byteOffset":27720,"byteLength":4608,"target":34962,"byteStride":12},{"buffer":0,"byteOffset":32328,"byteLength":4608,"target":34962,"byteStride":12},{"buffer":0,"byteOffset":36936,"byteLength":3072,"target":34962,"byteStride":8},{"buffer":0,"byteOffset":40008,"byteLength":1152,"target":34963},{"buffer":0,"byteOffset":41160,"byteLength":4608,"target":34962,"byteStride":12},{"buffer":0,"byteOffset":45768,"byteLength":4608,"target":34962,"byteStride":12},{"buffer":0,"byteOffset":50376,"byteLength":3072,"target":34962,"byteStride":8},{"buffer":0,"byteOffset":53448,"byteLength":1152,"target":34963},{"buffer":0,"byteOffset":54600,"byteLength":4608,"target":34962,"byteStride":12},{"buffer":0,"byteOffset":59208,"byteLength":4608,"target":34962,"byteStride":12},{"buffer":0,"byteOffset":63816,"byteLength":3072,"target":34962,"byteStride":8},{"buffer":0,"byteOffset":66888,"byteLength":1152,"target":34963},{"buffer":0,"byteOffset":68040,"byteLength":4608,"target":34962,"byteStride":12},{"buffer":0,"byteOffset":72648,"byteLength":4608,"target":34962,"byteStride":12},{"buffer":0,"byteOffset":77256,"byteLength":3072,"target":34962,"byteStride":8},{"buffer":0,"byteOffset":80328,"byteLength":1152,"target":34963},{"buffer":0,"byteOffset":81480,"byteLength":4608,"target":34962,"byteStride":12},{"buffer":0,"byteOffset":86088,"byteLength":4608,"target":34962,"byteStride":12},{"buffer":0,"byteOffset":90696,"byteLength":3072,"target":34962,"byteStride":8},{"buffer":0,"byteOffset":93768,"byteLength":1152,"target":34963},{"buffer":0,"byteOffset":94920,"byteLength":4608,"target":34962,"byteStride":12},{"buffer":0,"byteOffset":99528,"byteLength":4608,"target":34962,"byteStride":12},{"buffer":0,"byteOffset":104136,"byteLength":3072,"target":34962,"byteStride":8},{"buffer":0,"byteOffset":107208,"byteLength":1152,"target":34963},{"buffer":0,"byteOffset":108360,"byteLength":4608,"target":34962,"byteStride":12},{"buffer":0,"byteOffset":112968,"byteLength":4608,"target":34962,"byteStride":12},{"buffer":0,"byteOffset":117576,"byteLength":3072,"target":34962,"byteStride":8},{"buffer":0,"byteOffset":120648,"byteLength":1152,"target":34963},{"buffer":0,"byteOffset":121800,"byteLength":1440,"target":34962,"byteStride":12},{"buffer":0,"byteOffset":123240,"byteLength":1440,"target":34962,"byteStride":12},{"buffer":0,"byteOffset":124680,"byteLength":960,"target":34962,"byteStride":8},{"buffer":0,"byteOffset":125640,"byteLength":288,"target":34963},{"buffer":0,"byteOffset":125928,"byteLength":1440,"target":34962,"byteStride":12},{"buffer":0,"byteOffset":127368,"byteLength":1440,"target":34962,"byteStride":12},{"buffer":0,"byteOffset":128808,"byteLength":960,"target":34962,"byteStride":8},{"buffer":0,"byteOffset":129768,"byteLength":288,"target":34963},{"buffer":0,"byteOffset":130056,"byteLength":1440,"target":34962,"byteStride":12},{"buffer":0,"byteOffset":131496,"byteLength":1440,"target":34962,"byteStride":12},{"buffer":0,"byteOffset":132936,"byteLength":960,"target":34962,"byteStride":8},{"buffer":0,"byteOffset":133896,"byteLength":288,"target":34963},{"buffer":0,"byteOffset":134184,"byteLength":1440,"target":34962,"byteStride":12},{"buffer":0,"byteOffset":135624,"byteLength":1440,"target":34962,"byteStride":12},{"buffer":0,"byteOffset":137064,"byteLength":960,"target":34962,"byteStride":8},{"buffer":0,"byteOffset":138024,"byteLength":288,"target":34963},{"buffer":0,"byteOffset":138312,"byteLength":1440,"target":34962,"byteStride":12},{"buffer":0,"byteOffset":139752,"byteLength":1440,"target":34962,"byteStride":12},{"buffer":0,"byteOffset":141192,"byteLength":960,"target":34962,"byteStride":8},{"buffer":0,"byteOffset":142152,"byteLength":288,"target":34963},{"buffer":0,"byteOffset":142440,"byteLength":288,"target":34962,"byteStride":12},{"buffer":0,"byteOffset":142728,"byteLength":288,"target":34962,"byteStride":12},{"buffer":0,"byteOffset":143016,"byteLength":192,"target":34962,"byteStride":8},{"buffer":0,"byteOffset":143208,"byteLength":72,"target":34963}],"buffers":[{"byteLength":143280,"uri":"data:application/octet-stream;base64,"}],"accessors":[{"bufferView":0,"componentType":5126,"count":24,"max":[0.5,0.75,0.5],"min":[-0.5,0,-0.5],"type":"VEC3"},{"bufferView":1,"componentType":5126,"count":24,"max":[1,1,1],"min":[-1,-1,-1],"type":"VEC3"},{"bufferView":2,"componentType":5126,"count":24,"max":[0.515625,0.71875],"min":[0,0],"type":"VEC2"},{"bufferView":3,"componentType":5123,"count":36,"max":[23],"min":[0],"type":"SCALAR"},{"bufferView":4,"componentType":5126,"count":384,"max":[0.125,0.06690952181816101,0.125],"min":[-0.125,-0.06690952181816101,-0.125],"type":"VEC3"},{"bufferView":5,"componentType":5126,"count":384,"max":[0.9882346391677856,0.6698029041290283,0.9882346391677856],"min":[-0.9882346391677856,-0.6698029041290283,-0.9882346391677856],"type":"VEC3"},{"bufferView":6,"componentType":5126,"count":384,"max":[0.9988859295845032,1],"min":[0.1291784793138504,0.015441954135894775],"type":"VEC2"},{"bufferView":7,"componentType":5123,"count":576,"max":[383],"min":[0],"type":"SCALAR"},{"bufferView":8,"componentType":5126,"count":384,"max":[0.125,0.06690952181816101,0.125],"min":[-0.125,-0.06690952181816101,-0.125],"type":"VEC3"},{"bufferView":9,"componentType":5126,"count":384,"max":[0.9882346391677856,0.6698029041290283,0.9882346391677856],"min":[-0.9882346391677856,-0.6698029041290283,-0.9882346391677856],"type":"VEC3"},{"bufferView":10,"componentType":5126,"count":384,"max":[0.9988859295845032,1],"min":[0.0666784793138504,0.046875],"type":"VEC2"},{"bufferView":11,"componentType":5123,"count":576,"max":[383],"min":[0],"type":"SCALAR"},{"bufferView":12,"componentType":5126,"count":384,"max":[0.125,0.06690952181816101,0.125],"min":[-0.125,-0.06690952181816101,-0.125],"type":"VEC3"},{"bufferView":13,"componentType":5126,"count":384,"max":[0.9882346391677856,0.6698029041290283,0.9882346391677856],"min":[-0.9882346391677856,-0.6698029041290283,-0.9882346391677856],"type":"VEC3"},{"bufferView":14,"componentType":5126,"count":384,"max":[0.9988859295845032,1],"min":[0.0041784802451729774,0.16640746593475342],"type":"VEC2"},{"bufferView":15,"componentType":5123,"count":576,"max":[383],"min":[0],"type":"SCALAR"},{"bufferView":16,"componentType":5126,"count":384,"max":[0.125,0.06690952181816101,0.125],"min":[-0.125,-0.06690952181816101,-0.125],"type":"VEC3"},{"bufferView":17,"componentType":5126,"count":384,"max":[0.9882346391677856,0.6698029041290283,0.9882346391677856],"min":[-0.9882346391677856,-0.6698029041290283,-0.9882346391677856],"type":"VEC3"},{"bufferView":18,"componentType":5126,"count":384,"max":[0.9645715355873108,1],"min":[0.0052118501625955105,0],"type":"VEC2"},{"bufferView":19,"componentType":5123,"count":576,"max":[383],"min":[0],"type":"SCALAR"},{"bufferView":20,"componentType":5126,"count":384,"max":[0.125,0.06690952181816101,0.125],"min":[-0.125,-0.06690952181816101,-0.125],"type":"VEC3"},{"bufferView":21,"componentType":5126,"count":384,"max":[0.9882346391677856,0.6698029041290283,0.9882346391677856],"min":[-0.9882346391677856,-0.6698029041290283,-0.9882346391677856],"type":"VEC3"},{"bufferView":22,"componentType":5126,"count":384,"max":[0.9801965355873108,1],"min":[0.0052118501625955105,0],"type":"VEC2"},{"bufferView":23,"componentType":5123,"count":576,"max":[383],"min":[0],"type":"SCALAR"},{"bufferView":24,"componentType":5126,"count":384,"max":[0.125,0.06690952181816101,0.125],"min":[-0.125,-0.06690952181816101,-0.125],"type":"VEC3"},{"bufferView":25,"componentType":5126,"count":384,"max":[0.9882346391677856,0.6698029041290283,0.9882346391677856],"min":[-0.9882346391677856,-0.6698029041290283,-0.9882346391677856],"type":"VEC3"},{"bufferView":26,"componentType":5126,"count":384,"max":[0.9801965355873108,1],"min":[0.13021184504032135,0.09375],"type":"VEC2"},{"bufferView":27,"componentType":5123,"count":576,"max":[383],"min":[0],"type":"SCALAR"},{"bufferView":28,"componentType":5126,"count":384,"max":[0.125,0.06690952181816101,0.125],"min":[-0.125,-0.06690952181816101,-0.125],"type":"VEC3"},{"bufferView":29,"componentType":5126,"count":384,"max":[0.9882346391677856,0.6698029041290283,0.9882346391677856],"min":[-0.9882346391677856,-0.6698029041290283,-0.9882346391677856],"type":"VEC3"},{"bufferView":30,"componentType":5126,"count":384,"max":[0.9988859295845032,1],"min":[0.04798906296491623,0],"type":"VEC2"},{"bufferView":31,"componentType":5123,"count":576,"max":[383],"min":[0],"type":"SCALAR"},{"bufferView":32,"componentType":5126,"count":384,"max":[0.125,0.06690952181816101,0.125],"min":[-0.125,-0.06690952181816101,-0.125],"type":"VEC3"},{"bufferView":33,"componentType":5126,"count":384,"max":[0.9882346391677856,0.6698029041290283,0.9882346391677856],"min":[-0.9882346391677856,-0.6698029041290283,-0.9882346391677856],"type":"VEC3"},{"bufferView":34,"componentType":5126,"count":384,"max":[0.976632833480835,0.984375],"min":[0.0044485158286988735,0.16640746593475342],"type":"VEC2"},{"bufferView":35,"componentType":5123,"count":576,"max":[383],"min":[0],"type":"SCALAR"},{"bufferView":36,"componentType":5126,"count":384,"max":[0.125,0.06690952181816101,0.125],"min":[-0.125,-0.06690952181816101,-0.125],"type":"VEC3"},{"bufferView":37,"componentType":5126,"count":384,"max":[0.9882346391677856,0.6698029041290283,0.9882346391677856],"min":[-0.9882346391677856,-0.6698029041290283,-0.9882346391677856],"type":"VEC3"},{"bufferView":38,"componentType":5126,"count":384,"max":[0.976632833480835,1],"min":[0.23548905551433563,0.16640746593475342],"type":"VEC2"},{"bufferView":39,"componentType":5123,"count":576,"max":[383],"min":[0],"type":"SCALAR"},{"bufferView":40,"componentType":5126,"count":120,"max":[0.0625,0.3125,0.0625],"min":[-0.0625,0.1875,-0.0625],"type":"VEC3"},{"bufferView":41,"componentType":5126,"count":120,"max":[1,1,1],"min":[-1,-1,-1],"type":"VEC3"},{"bufferView":42,"componentType":5126,"count":120,"max":[0.9344328045845032,0.9375],"min":[0.19056718051433563,0.203125],"type":"VEC2"},{"bufferView":43,"componentType":5123,"count":144,"max":[119],"min":[0],"type":"SCALAR"},{"bufferView":44,"componentType":5126,"count":120,"max":[0.0625,0.3125,0.0625],"min":[-0.0625,0.1875,-0.0625],"type":"VEC3"},{"bufferView":45,"componentType":5126,"count":120,"max":[1,1,1],"min":[-1,-1,-1],"type":"VEC3"},{"bufferView":46,"componentType":5126,"count":120,"max":[0.9344328045845032,0.9375],"min":[0.003067187499254942,0.0625],"type":"VEC2"},{"bufferView":47,"componentType":5123,"count":144,"max":[119],"min":[0],"type":"SCALAR"},{"bufferView":48,"componentType":5126,"count":120,"max":[0.0625,0.3125,0.0625],"min":[-0.0625,0.1875,-0.0625],"type":"VEC3"},{"bufferView":49,"componentType":5126,"count":120,"max":[1,1,1],"min":[-1,-1,-1],"type":"VEC3"},{"bufferView":50,"componentType":5126,"count":120,"max":[0.9344328045845032,0.9375],"min":[0.09681718796491623,0.109375],"type":"VEC2"},{"bufferView":51,"componentType":5123,"count":144,"max":[119],"min":[0],"type":"SCALAR"},{"bufferView":52,"componentType":5126,"count":120,"max":[0.0625,0.3125,0.0625],"min":[-0.0625,0.1875,-0.0625],"type":"VEC3"},{"bufferView":53,"componentType":5126,"count":120,"max":[1,1,1],"min":[-1,-1,-1],"type":"VEC3"},{"bufferView":54,"componentType":5126,"count":120,"max":[0.9188078045845032,0.90625],"min":[0.859375,0.0625],"type":"VEC2"},{"bufferView":55,"componentType":5123,"count":144,"max":[119],"min":[0],"type":"SCALAR"},{"bufferView":56,"componentType":5126,"count":120,"max":[0.0625,0.3125,0.0625],"min":[-0.0625,0.1875,-0.0625],"type":"VEC3"},{"bufferView":57,"componentType":5126,"count":120,"max":[1,1,1],"min":[-1,-1,-1],"type":"VEC3"},{"bufferView":58,"componentType":5126,"count":120,"max":[0.9188078045845032,0.703125],"min":[0.859375,0.15625],"type":"VEC2"},{"bufferView":59,"componentType":5123,"count":144,"max":[119],"min":[0],"type":"SCALAR"},{"bufferView":60,"componentType":5126,"count":24,"max":[0.4375,0.125,0.0625],"min":[-0.4375,0,0],"type":"VEC3"},{"bufferView":61,"componentType":5126,"count":24,"max":[1,1,1],"min":[-1,-1,-1],"type":"VEC3"},{"bufferView":62,"componentType":5126,"count":24,"max":[0.75,0.765625],"min":[0.46875,0],"type":"VEC2"},{"bufferView":63,"componentType":5123,"count":36,"max":[23],"min":[0],"type":"SCALAR"}],"materials":[{"pbrMetallicRoughness":{"metallicFactor":0,"roughnessFactor":1,"baseColorTexture":{"index":0}},"alphaMode":"MASK","alphaCutoff":0.05,"doubleSided":true}],"textures":[{"sampler":0,"source":0,"name":"oven"}],"samplers":[{"magFilter":9728,"minFilter":9728,"wrapS":33071,"wrapT":33071}],"images":[{"mimeType":"image/png","uri":"data:image/png;base64,"}],"meshes":[{"primitives":[{"mode":4,"attributes":{"POSITION":0,"NORMAL":1,"TEXCOORD_0":2},"indices":3,"material":0}]},{"primitives":[{"mode":4,"attributes":{"POSITION":4,"NORMAL":5,"TEXCOORD_0":6},"indices":7,"material":0}]},{"primitives":[{"mode":4,"attributes":{"POSITION":8,"NORMAL":9,"TEXCOORD_0":10},"indices":11,"material":0}]},{"primitives":[{"mode":4,"attributes":{"POSITION":12,"NORMAL":13,"TEXCOORD_0":14},"indices":15,"material":0}]},{"primitives":[{"mode":4,"attributes":{"POSITION":16,"NORMAL":17,"TEXCOORD_0":18},"indices":19,"material":0}]},{"primitives":[{"mode":4,"attributes":{"POSITION":20,"NORMAL":21,"TEXCOORD_0":22},"indices":23,"material":0}]},{"primitives":[{"mode":4,"attributes":{"POSITION":24,"NORMAL":25,"TEXCOORD_0":26},"indices":27,"material":0}]},{"primitives":[{"mode":4,"attributes":{"POSITION":28,"NORMAL":29,"TEXCOORD_0":30},"indices":31,"material":0}]},{"primitives":[{"mode":4,"attributes":{"POSITION":32,"NORMAL":33,"TEXCOORD_0":34},"indices":35,"material":0}]},{"primitives":[{"mode":4,"attributes":{"POSITION":36,"NORMAL":37,"TEXCOORD_0":38},"indices":39,"material":0}]},{"primitives":[{"mode":4,"attributes":{"POSITION":40,"NORMAL":41,"TEXCOORD_0":42},"indices":43,"material":0}]},{"primitives":[{"mode":4,"attributes":{"POSITION":44,"NORMAL":45,"TEXCOORD_0":46},"indices":47,"material":0}]},{"primitives":[{"mode":4,"attributes":{"POSITION":48,"NORMAL":49,"TEXCOORD_0":50},"indices":51,"material":0}]},{"primitives":[{"mode":4,"attributes":{"POSITION":52,"NORMAL":53,"TEXCOORD_0":54},"indices":55,"material":0}]},{"primitives":[{"mode":4,"attributes":{"POSITION":56,"NORMAL":57,"TEXCOORD_0":58},"indices":59,"material":0}]},{"primitives":[{"mode":4,"attributes":{"POSITION":60,"NORMAL":61,"TEXCOORD_0":62},"indices":63,"material":0}]}]}